# xmcd CD database file
#
# Track frame offsets:
#	150
#	17376
#	30928
#	41971
#	58930
#	77361
#	95110
#	124469
#	132855
#	149738
#	167518
#	184064
#	197032
#	217453
#	232626
#	248241
#	263880
#	273722
#	285979
#	298628
#
# Disc length: 4175 seconds
#
# Revision: 0
# Processed by: cddbd v1.5PL3 Copyright (c) Steve Scherf et al.
# Submitted via: CDex 1.51
#
DISCID=30104d14
DTITLE=Sojiro  - Light Classics
DYEAR=1995
DGENRE=New Age
TTITLE0=(Japanese Titles)
TTITLE1=(Japanese Titles)
TTITLE2=(Japanese Titles)
TTITLE3=(Japanese Titles)
TTITLE4=(Japanese Titles)
TTITLE5=(Japanese Titles)
TTITLE6=(Japanese Titles)
TTITLE7=(Japanese Titles)
TTITLE8=(Japanese Titles)
TTITLE9=(Japanese Titles)
TTITLE10=(Japanese Titles)
TTITLE11=(Japanese Titles)
TTITLE12=(Japanese Titles)
TTITLE13=(Japanese Titles)
TTITLE14=(Japanese Titles)
TTITLE15=(Japanese Titles)
TTITLE16=(Japanese Titles)
TTITLE17=(Japanese Titles)
TTITLE18=(Japanese Titles)
TTITLE19=(Japanese Titles)
EXTD=YEAR: 1995
EXTT0=
EXTT1=
EXTT2=
EXTT3=
EXTT4=
EXTT5=
EXTT6=
EXTT7=
EXTT8=
EXTT9=
EXTT10=
EXTT11=
EXTT12=
EXTT13=
EXTT14=
EXTT15=
EXTT16=
EXTT17=
EXTT18=
EXTT19=
PLAYORDER=
